<svg width="36" height="36" viewBox="0 0 36 36" fill="none" xmlns="http://www.w3.org/2000/svg">
<path d="M24.6667 21.2802V23.2802C24.6675 23.4659 24.6294 23.6497 24.555 23.8198C24.4807 23.9899 24.3716 24.1426 24.2348 24.2681C24.0979 24.3937 23.9364 24.4892 23.7605 24.5487C23.5847 24.6082 23.3983 24.6303 23.2134 24.6136C21.1619 24.3907 19.1914 23.6897 17.46 22.5669C15.8493 21.5433 14.4836 20.1777 13.46 18.5669C12.3334 16.8277 11.6322 14.8476 11.4134 12.7869C11.3967 12.6025 11.4186 12.4167 11.4777 12.2413C11.5368 12.0659 11.6318 11.9047 11.7565 11.768C11.8813 11.6313 12.0332 11.522 12.2026 11.4472C12.3719 11.3725 12.5549 11.3337 12.74 11.3336H14.74C15.0636 11.3304 15.3772 11.4449 15.6225 11.6559C15.8679 11.8669 16.0281 12.1599 16.0734 12.4802C16.1578 13.1203 16.3143 13.7487 16.54 14.3536C16.6297 14.5922 16.6491 14.8515 16.596 15.1008C16.5428 15.3501 16.4193 15.579 16.24 15.7602L15.3934 16.6069C16.3424 18.2759 17.7243 19.6579 19.3934 20.6069L20.24 19.7602C20.4213 19.581 20.6501 19.4575 20.8995 19.4043C21.1488 19.3511 21.4081 19.3705 21.6467 19.4602C22.2516 19.6859 22.88 19.8425 23.52 19.9269C23.8439 19.9726 24.1396 20.1357 24.3511 20.3852C24.5625 20.6348 24.6748 20.9533 24.6667 21.2802Z" fill="white"/>
<rect x="1" y="1" width="34" height="34" stroke="#C9AB63" stroke-width="2"/>
</svg>
